<svg width="1200" height="355" viewBox="0 0 1200 355" fill="none" xmlns="http://www.w3.org/2000/svg">
<rect width="1200" height="355" fill="#678E7A"/>
<g filter="url(#filter0_i_3_449)">
<path d="M309.771 155H300.908L326.544 85.1818H335.271L360.908 155H352.044L331.18 96.2273H330.635L309.771 155ZM313.044 127.727H348.771V135.227H313.044V127.727ZM378.737 85.1818V155H370.692V85.1818H378.737ZM415.428 156.091C410.382 156.091 406.03 154.977 402.371 152.75C398.734 150.5 395.928 147.364 393.95 143.341C391.996 139.295 391.018 134.591 391.018 129.227C391.018 123.864 391.996 119.136 393.95 115.045C395.928 110.932 398.678 107.727 402.2 105.432C405.746 103.114 409.882 101.955 414.609 101.955C417.337 101.955 420.03 102.409 422.689 103.318C425.348 104.227 427.768 105.705 429.95 107.75C432.132 109.773 433.871 112.455 435.166 115.795C436.462 119.136 437.109 123.25 437.109 128.136V131.545H396.746V124.591H428.928C428.928 121.636 428.337 119 427.155 116.682C425.996 114.364 424.337 112.534 422.178 111.193C420.041 109.852 417.518 109.182 414.609 109.182C411.405 109.182 408.632 109.977 406.291 111.568C403.973 113.136 402.189 115.182 400.939 117.705C399.689 120.227 399.064 122.932 399.064 125.818V130.455C399.064 134.409 399.746 137.761 401.109 140.511C402.496 143.239 404.416 145.318 406.871 146.75C409.325 148.159 412.178 148.864 415.428 148.864C417.541 148.864 419.45 148.568 421.155 147.977C422.882 147.364 424.371 146.455 425.621 145.25C426.871 144.023 427.837 142.5 428.518 140.682L436.291 142.864C435.473 145.5 434.098 147.818 432.166 149.818C430.234 151.795 427.848 153.341 425.007 154.455C422.166 155.545 418.973 156.091 415.428 156.091ZM453.942 102.636L466.487 124.045L479.033 102.636H488.305L471.396 128.818L488.305 155H479.033L466.487 134.682L453.942 155H444.669L461.305 128.818L444.669 102.636H453.942ZM499.786 155V102.636H507.831V155H499.786ZM503.876 93.9091C502.308 93.9091 500.956 93.375 499.82 92.3068C498.706 91.2386 498.149 89.9545 498.149 88.4545C498.149 86.9545 498.706 85.6705 499.82 84.6023C500.956 83.5341 502.308 83 503.876 83C505.445 83 506.786 83.5341 507.899 84.6023C509.036 85.6705 509.604 86.9545 509.604 88.4545C509.604 89.9545 509.036 91.2386 507.899 92.3068C506.786 93.375 505.445 93.9091 503.876 93.9091ZM559.658 114.364L552.43 116.409C551.976 115.205 551.305 114.034 550.419 112.898C549.555 111.739 548.374 110.784 546.874 110.034C545.374 109.284 543.453 108.909 541.112 108.909C537.908 108.909 535.237 109.648 533.101 111.125C530.987 112.58 529.93 114.432 529.93 116.682C529.93 118.682 530.658 120.261 532.112 121.42C533.567 122.58 535.839 123.545 538.93 124.318L546.703 126.227C551.385 127.364 554.874 129.102 557.169 131.443C559.464 133.761 560.612 136.75 560.612 140.409C560.612 143.409 559.749 146.091 558.021 148.455C556.317 150.818 553.93 152.682 550.862 154.045C547.794 155.409 544.226 156.091 540.158 156.091C534.817 156.091 530.396 154.932 526.896 152.614C523.396 150.295 521.18 146.909 520.249 142.455L527.885 140.545C528.612 143.364 529.987 145.477 532.01 146.886C534.055 148.295 536.726 149 540.021 149C543.771 149 546.749 148.205 548.953 146.614C551.18 145 552.294 143.068 552.294 140.818C552.294 139 551.658 137.477 550.385 136.25C549.112 135 547.158 134.068 544.521 133.455L535.794 131.409C530.999 130.273 527.476 128.511 525.226 126.125C522.999 123.716 521.885 120.705 521.885 117.091C521.885 114.136 522.714 111.523 524.374 109.25C526.055 106.977 528.339 105.193 531.226 103.898C534.135 102.602 537.43 101.955 541.112 101.955C546.294 101.955 550.362 103.091 553.317 105.364C556.294 107.636 558.408 110.636 559.658 114.364ZM600.814 155V85.1818H609.268V116.273H646.496V85.1818H654.95V155H646.496V123.773H609.268V155H600.814ZM703.786 133.591V102.636H711.831V155H703.786V146.136H703.24C702.013 148.795 700.104 151.057 697.513 152.92C694.922 154.761 691.649 155.682 687.695 155.682C684.422 155.682 681.513 154.966 678.967 153.534C676.422 152.08 674.422 149.898 672.967 146.989C671.513 144.057 670.786 140.364 670.786 135.909V102.636H678.831V135.364C678.831 139.182 679.899 142.227 682.036 144.5C684.195 146.773 686.945 147.909 690.286 147.909C692.286 147.909 694.32 147.398 696.388 146.375C698.479 145.352 700.229 143.784 701.638 141.67C703.07 139.557 703.786 136.864 703.786 133.591ZM747.839 156.091C743.112 156.091 738.964 154.966 735.396 152.716C731.851 150.466 729.078 147.318 727.078 143.273C725.101 139.227 724.112 134.5 724.112 129.091C724.112 123.636 725.101 118.875 727.078 114.807C729.078 110.739 731.851 107.58 735.396 105.33C738.964 103.08 743.112 101.955 747.839 101.955C752.567 101.955 756.703 103.08 760.249 105.33C763.817 107.58 766.589 110.739 768.567 114.807C770.567 118.875 771.567 123.636 771.567 129.091C771.567 134.5 770.567 139.227 768.567 143.273C766.589 147.318 763.817 150.466 760.249 152.716C756.703 154.966 752.567 156.091 747.839 156.091ZM747.839 148.864C751.43 148.864 754.385 147.943 756.703 146.102C759.021 144.261 760.737 141.841 761.851 138.841C762.964 135.841 763.521 132.591 763.521 129.091C763.521 125.591 762.964 122.33 761.851 119.307C760.737 116.284 759.021 113.841 756.703 111.977C754.385 110.114 751.43 109.182 747.839 109.182C744.249 109.182 741.294 110.114 738.976 111.977C736.658 113.841 734.942 116.284 733.828 119.307C732.714 122.33 732.158 125.591 732.158 129.091C732.158 132.591 732.714 135.841 733.828 138.841C734.942 141.841 736.658 144.261 738.976 146.102C741.294 147.943 744.249 148.864 747.839 148.864ZM806.621 102.636V109.455H779.484V102.636H806.621ZM787.393 90.0909H795.439V140C795.439 142.273 795.768 143.977 796.428 145.114C797.109 146.227 797.973 146.977 799.018 147.364C800.087 147.727 801.212 147.909 802.393 147.909C803.28 147.909 804.007 147.864 804.575 147.773C805.143 147.659 805.598 147.568 805.939 147.5L807.575 154.727C807.03 154.932 806.268 155.136 805.291 155.341C804.314 155.568 803.075 155.682 801.575 155.682C799.303 155.682 797.075 155.193 794.893 154.216C792.734 153.239 790.939 151.75 789.507 149.75C788.098 147.75 787.393 145.227 787.393 142.182V90.0909ZM841.496 102.636V109.455H814.359V102.636H841.496ZM822.268 90.0909H830.314V140C830.314 142.273 830.643 143.977 831.303 145.114C831.984 146.227 832.848 146.977 833.893 147.364C834.962 147.727 836.087 147.909 837.268 147.909C838.155 147.909 838.882 147.864 839.45 147.773C840.018 147.659 840.473 147.568 840.814 147.5L842.45 154.727C841.905 154.932 841.143 155.136 840.166 155.341C839.189 155.568 837.95 155.682 836.45 155.682C834.178 155.682 831.95 155.193 829.768 154.216C827.609 153.239 825.814 151.75 824.382 149.75C822.973 147.75 822.268 145.227 822.268 142.182V90.0909ZM874.99 156.091C869.945 156.091 865.592 154.977 861.933 152.75C858.297 150.5 855.49 147.364 853.513 143.341C851.558 139.295 850.581 134.591 850.581 129.227C850.581 123.864 851.558 119.136 853.513 115.045C855.49 110.932 858.24 107.727 861.763 105.432C865.308 103.114 869.445 101.955 874.172 101.955C876.899 101.955 879.592 102.409 882.251 103.318C884.911 104.227 887.331 105.705 889.513 107.75C891.695 109.773 893.433 112.455 894.729 115.795C896.024 119.136 896.672 123.25 896.672 128.136V131.545H856.308V124.591H888.49C888.49 121.636 887.899 119 886.717 116.682C885.558 114.364 883.899 112.534 881.74 111.193C879.604 109.852 877.081 109.182 874.172 109.182C870.967 109.182 868.195 109.977 865.854 111.568C863.536 113.136 861.751 115.182 860.501 117.705C859.251 120.227 858.626 122.932 858.626 125.818V130.455C858.626 134.409 859.308 137.761 860.672 140.511C862.058 143.239 863.979 145.318 866.433 146.75C868.888 148.159 871.74 148.864 874.99 148.864C877.104 148.864 879.013 148.568 880.717 147.977C882.445 147.364 883.933 146.455 885.183 145.25C886.433 144.023 887.399 142.5 888.081 140.682L895.854 142.864C895.036 145.5 893.661 147.818 891.729 149.818C889.797 151.795 887.411 153.341 884.57 154.455C881.729 155.545 878.536 156.091 874.99 156.091ZM416.408 271V201.182H439.999C445.476 201.182 449.953 202.17 453.43 204.148C456.93 206.102 459.521 208.75 461.203 212.091C462.885 215.432 463.726 219.159 463.726 223.273C463.726 227.386 462.885 231.125 461.203 234.489C459.544 237.852 456.976 240.534 453.499 242.534C450.021 244.511 445.567 245.5 440.135 245.5H423.226V238H439.862C443.612 238 446.624 237.352 448.896 236.057C451.169 234.761 452.817 233.011 453.839 230.807C454.885 228.58 455.408 226.068 455.408 223.273C455.408 220.477 454.885 217.977 453.839 215.773C452.817 213.568 451.158 211.841 448.862 210.591C446.567 209.318 443.521 208.682 439.726 208.682H424.862V271H416.408ZM496.964 272.091C492.237 272.091 488.089 270.966 484.521 268.716C480.976 266.466 478.203 263.318 476.203 259.273C474.226 255.227 473.237 250.5 473.237 245.091C473.237 239.636 474.226 234.875 476.203 230.807C478.203 226.739 480.976 223.58 484.521 221.33C488.089 219.08 492.237 217.955 496.964 217.955C501.692 217.955 505.828 219.08 509.374 221.33C512.942 223.58 515.714 226.739 517.692 230.807C519.692 234.875 520.692 239.636 520.692 245.091C520.692 250.5 519.692 255.227 517.692 259.273C515.714 263.318 512.942 266.466 509.374 268.716C505.828 270.966 501.692 272.091 496.964 272.091ZM496.964 264.864C500.555 264.864 503.51 263.943 505.828 262.102C508.146 260.261 509.862 257.841 510.976 254.841C512.089 251.841 512.646 248.591 512.646 245.091C512.646 241.591 512.089 238.33 510.976 235.307C509.862 232.284 508.146 229.841 505.828 227.977C503.51 226.114 500.555 225.182 496.964 225.182C493.374 225.182 490.419 226.114 488.101 227.977C485.783 229.841 484.067 232.284 482.953 235.307C481.839 238.33 481.283 241.591 481.283 245.091C481.283 248.591 481.839 251.841 482.953 254.841C484.067 257.841 485.783 260.261 488.101 262.102C490.419 263.943 493.374 264.864 496.964 264.864ZM532.973 271V218.636H540.746V226.545H541.291C542.246 223.955 543.973 221.852 546.473 220.239C548.973 218.625 551.791 217.818 554.928 217.818C555.518 217.818 556.257 217.83 557.143 217.852C558.03 217.875 558.7 217.909 559.155 217.955V226.136C558.882 226.068 558.257 225.966 557.28 225.83C556.325 225.67 555.314 225.591 554.246 225.591C551.7 225.591 549.428 226.125 547.428 227.193C545.45 228.239 543.882 229.693 542.723 231.557C541.587 233.398 541.018 235.5 541.018 237.864V271H532.973ZM594.746 218.636V225.455H567.609V218.636H594.746ZM575.518 206.091H583.564V256C583.564 258.273 583.893 259.977 584.553 261.114C585.234 262.227 586.098 262.977 587.143 263.364C588.212 263.727 589.337 263.909 590.518 263.909C591.405 263.909 592.132 263.864 592.7 263.773C593.268 263.659 593.723 263.568 594.064 263.5L595.7 270.727C595.155 270.932 594.393 271.136 593.416 271.341C592.439 271.568 591.2 271.682 589.7 271.682C587.428 271.682 585.2 271.193 583.018 270.216C580.859 269.239 579.064 267.75 577.632 265.75C576.223 263.75 575.518 261.227 575.518 258.182V206.091ZM630.166 218.636V225.455H601.939V218.636H630.166ZM610.393 271V211.409C610.393 208.409 611.098 205.909 612.507 203.909C613.916 201.909 615.746 200.409 617.996 199.409C620.246 198.409 622.621 197.909 625.121 197.909C627.098 197.909 628.712 198.068 629.962 198.386C631.212 198.705 632.143 199 632.757 199.273L630.439 206.227C630.03 206.091 629.462 205.92 628.734 205.716C628.03 205.511 627.098 205.409 625.939 205.409C623.28 205.409 621.359 206.08 620.178 207.42C619.018 208.761 618.439 210.727 618.439 213.318V271H610.393ZM660.558 272.091C655.831 272.091 651.683 270.966 648.115 268.716C644.57 266.466 641.797 263.318 639.797 259.273C637.82 255.227 636.831 250.5 636.831 245.091C636.831 239.636 637.82 234.875 639.797 230.807C641.797 226.739 644.57 223.58 648.115 221.33C651.683 219.08 655.831 217.955 660.558 217.955C665.286 217.955 669.422 219.08 672.967 221.33C676.536 223.58 679.308 226.739 681.286 230.807C683.286 234.875 684.286 239.636 684.286 245.091C684.286 250.5 683.286 255.227 681.286 259.273C679.308 263.318 676.536 266.466 672.967 268.716C669.422 270.966 665.286 272.091 660.558 272.091ZM660.558 264.864C664.149 264.864 667.104 263.943 669.422 262.102C671.74 260.261 673.456 257.841 674.57 254.841C675.683 251.841 676.24 248.591 676.24 245.091C676.24 241.591 675.683 238.33 674.57 235.307C673.456 232.284 671.74 229.841 669.422 227.977C667.104 226.114 664.149 225.182 660.558 225.182C656.967 225.182 654.013 226.114 651.695 227.977C649.376 229.841 647.661 232.284 646.547 235.307C645.433 238.33 644.876 241.591 644.876 245.091C644.876 248.591 645.433 251.841 646.547 254.841C647.661 257.841 649.376 260.261 651.695 262.102C654.013 263.943 656.967 264.864 660.558 264.864ZM704.612 201.182V271H696.567V201.182H704.612ZM719.348 271V218.636H727.393V271H719.348ZM723.439 209.909C721.871 209.909 720.518 209.375 719.382 208.307C718.268 207.239 717.712 205.955 717.712 204.455C717.712 202.955 718.268 201.67 719.382 200.602C720.518 199.534 721.871 199 723.439 199C725.007 199 726.348 199.534 727.462 200.602C728.598 201.67 729.166 202.955 729.166 204.455C729.166 205.955 728.598 207.239 727.462 208.307C726.348 209.375 725.007 209.909 723.439 209.909ZM763.402 272.091C758.675 272.091 754.527 270.966 750.959 268.716C747.413 266.466 744.641 263.318 742.641 259.273C740.663 255.227 739.675 250.5 739.675 245.091C739.675 239.636 740.663 234.875 742.641 230.807C744.641 226.739 747.413 223.58 750.959 221.33C754.527 219.08 758.675 217.955 763.402 217.955C768.129 217.955 772.266 219.08 775.811 221.33C779.379 223.58 782.152 226.739 784.129 230.807C786.129 234.875 787.129 239.636 787.129 245.091C787.129 250.5 786.129 255.227 784.129 259.273C782.152 263.318 779.379 266.466 775.811 268.716C772.266 270.966 768.129 272.091 763.402 272.091ZM763.402 264.864C766.993 264.864 769.947 263.943 772.266 262.102C774.584 260.261 776.3 257.841 777.413 254.841C778.527 251.841 779.084 248.591 779.084 245.091C779.084 241.591 778.527 238.33 777.413 235.307C776.3 232.284 774.584 229.841 772.266 227.977C769.947 226.114 766.993 225.182 763.402 225.182C759.811 225.182 756.857 226.114 754.538 227.977C752.22 229.841 750.504 232.284 749.391 235.307C748.277 238.33 747.72 241.591 747.72 245.091C747.72 248.591 748.277 251.841 749.391 254.841C750.504 257.841 752.22 260.261 754.538 262.102C756.857 263.943 759.811 264.864 763.402 264.864Z" fill="url(#paint0_radial_3_449)"/>
</g>
<defs>
<filter id="filter0_i_3_449" x="300.908" y="83" width="595.764" height="189.091" filterUnits="userSpaceOnUse" color-interpolation-filters="sRGB">
<feFlood flood-opacity="0" result="BackgroundImageFix"/>
<feBlend mode="normal" in="SourceGraphic" in2="BackgroundImageFix" result="shape"/>
<feColorMatrix in="SourceAlpha" type="matrix" values="0 0 0 0 0 0 0 0 0 0 0 0 0 0 0 0 0 0 127 0" result="hardAlpha"/>
<feOffset dy="4"/>
<feComposite in2="hardAlpha" operator="arithmetic" k2="-1" k3="1"/>
<feColorMatrix type="matrix" values="0 0 0 0 0 0 0 0 0 0 0 0 0 0 0 0 0 0 0.25 0"/>
<feBlend mode="normal" in2="shape" result="effect1_innerShadow_3_449"/>
</filter>
<radialGradient id="paint0_radial_3_449" cx="0" cy="0" r="1" gradientUnits="userSpaceOnUse" gradientTransform="translate(125.5 178) scale(1019.5 216.995)">
<stop stop-color="#2C3631"/>
<stop offset="1" stop-color="#2C3631"/>
</radialGradient>
</defs>
</svg>
