<svg width="124" height="124" viewBox="0 0 124 124" fill="none" xmlns="http://www.w3.org/2000/svg">
<g clip-path="url(#clip0_3_460)">
<path d="M98.1667 0H25.8333C11.5682 0 0 11.5682 0 25.8333V98.1667C0 112.432 11.5682 124 25.8333 124H98.1667C112.437 124 124 112.432 124 98.1667V25.8333C124 11.5682 112.437 0 98.1667 0ZM41.3333 98.1667H25.8333V41.3333H41.3333V98.1667ZM33.5833 34.782C28.5923 34.782 24.5417 30.7003 24.5417 25.668C24.5417 20.6357 28.5923 16.554 33.5833 16.554C38.5743 16.554 42.625 20.6357 42.625 25.668C42.625 30.7003 38.5795 34.782 33.5833 34.782ZM103.333 98.1667H87.8333V69.2127C87.8333 51.8113 67.1667 53.1288 67.1667 69.2127V98.1667H51.6667V41.3333H67.1667V50.4525C74.3793 37.0915 103.333 36.1047 103.333 63.2452V98.1667Z" fill="#1E1E1E"/>
</g>
<defs>
<clipPath id="clip0_3_460">
<rect width="124" height="124" fill="white"/>
</clipPath>
</defs>
</svg>
