<svg width="795" height="253" viewBox="0 0 795 253" fill="none" xmlns="http://www.w3.org/2000/svg">
<g filter="url(#filter0_i_4_2)">
<path d="M11.8182 96H2.24113e-05L34.1818 2.90909H45.8182L80 96H68.1818L40.3637 17.6364H39.6364L11.8182 96ZM16.1818 59.6364H63.8182V69.6364H16.1818V59.6364ZM103.773 2.90909V96H93.0455V2.90909H103.773ZM152.693 97.4545C145.966 97.4545 140.163 95.9697 135.284 93C130.436 90 126.693 85.8182 124.057 80.4545C121.451 75.0606 120.148 68.7879 120.148 61.6364C120.148 54.4848 121.451 48.1818 124.057 42.7273C126.693 37.2424 130.36 32.9697 135.057 29.9091C139.784 26.8182 145.299 25.2727 151.602 25.2727C155.239 25.2727 158.83 25.8788 162.375 27.0909C165.92 28.303 169.148 30.2727 172.057 33C174.966 35.697 177.284 39.2727 179.011 43.7273C180.739 48.1818 181.602 53.6667 181.602 60.1818V64.7273H127.784V55.4545H170.693C170.693 51.5151 169.905 48 168.33 44.9091C166.784 41.8182 164.572 39.3788 161.693 37.5909C158.845 35.803 155.481 34.9091 151.602 34.9091C147.33 34.9091 143.633 35.9697 140.511 38.0909C137.42 40.1818 135.042 42.9091 133.375 46.2727C131.708 49.6364 130.875 53.2424 130.875 57.0909V63.2727C130.875 68.5455 131.784 73.0152 133.602 76.6818C135.451 80.3182 138.011 83.0909 141.284 85C144.557 86.8788 148.36 87.8182 152.693 87.8182C155.511 87.8182 158.057 87.4242 160.33 86.6364C162.633 85.8182 164.617 84.6061 166.284 83C167.951 81.3636 169.239 79.3333 170.148 76.9091L180.511 79.8182C179.42 83.3333 177.587 86.4242 175.011 89.0909C172.436 91.7273 169.254 93.7879 165.466 95.2727C161.678 96.7273 157.42 97.4545 152.693 97.4545ZM204.045 26.1818L220.773 54.7273L237.5 26.1818H249.864L227.318 61.0909L249.864 96H237.5L220.773 68.9091L204.045 96H191.682L213.864 61.0909L191.682 26.1818H204.045ZM265.17 96V26.1818H275.898V96H265.17ZM270.625 14.5455C268.534 14.5455 266.731 13.8333 265.216 12.4091C263.731 10.9848 262.989 9.27273 262.989 7.27273C262.989 5.27273 263.731 3.56061 265.216 2.13636C266.731 0.71212 268.534 0 270.625 0C272.716 0 274.504 0.71212 275.989 2.13636C277.504 3.56061 278.261 5.27273 278.261 7.27273C278.261 9.27273 277.504 10.9848 275.989 12.4091C274.504 13.8333 272.716 14.5455 270.625 14.5455ZM345 41.8182L335.364 44.5455C334.758 42.9394 333.864 41.3788 332.682 39.8636C331.53 38.3182 329.955 37.0455 327.955 36.0455C325.955 35.0455 323.394 34.5455 320.273 34.5455C316 34.5455 312.439 35.5303 309.591 37.5C306.773 39.4394 305.364 41.9091 305.364 44.9091C305.364 47.5758 306.333 49.6818 308.273 51.2273C310.212 52.7727 313.242 54.0606 317.364 55.0909L327.727 57.6364C333.97 59.1515 338.621 61.4697 341.682 64.5909C344.742 67.6818 346.273 71.6667 346.273 76.5455C346.273 80.5455 345.121 84.1212 342.818 87.2727C340.545 90.4242 337.364 92.9091 333.273 94.7273C329.182 96.5455 324.424 97.4545 319 97.4545C311.879 97.4545 305.985 95.9091 301.318 92.8182C296.652 89.7273 293.697 85.2121 292.455 79.2727L302.636 76.7273C303.606 80.4848 305.439 83.303 308.136 85.1818C310.864 87.0606 314.424 88 318.818 88C323.818 88 327.788 86.9394 330.727 84.8182C333.697 82.6667 335.182 80.0909 335.182 77.0909C335.182 74.6667 334.333 72.6364 332.636 71C330.939 69.3333 328.333 68.0909 324.818 67.2727L313.182 64.5455C306.788 63.0303 302.091 60.6818 299.091 57.5C296.121 54.2879 294.636 50.2727 294.636 45.4545C294.636 41.5151 295.742 38.0303 297.955 35C300.197 31.9697 303.242 29.5909 307.091 27.8636C310.97 26.1364 315.364 25.2727 320.273 25.2727C327.182 25.2727 332.606 26.7879 336.545 29.8182C340.515 32.8485 343.333 36.8485 345 41.8182ZM399.875 96V2.90909H411.148V44.3636H460.784V2.90909H472.057V96H460.784V54.3636H411.148V96H399.875ZM537.17 67.4545V26.1818H547.898V96H537.17V84.1818H536.443C534.807 87.7273 532.261 90.7424 528.807 93.2273C525.352 95.6818 520.989 96.9091 515.716 96.9091C511.352 96.9091 507.474 95.9545 504.08 94.0455C500.686 92.1061 498.019 89.197 496.08 85.3182C494.14 81.4091 493.17 76.4848 493.17 70.5455V26.1818H503.898V69.8182C503.898 74.9091 505.322 78.9697 508.17 82C511.049 85.0303 514.716 86.5455 519.17 86.5455C521.837 86.5455 524.549 85.8636 527.307 84.5C530.095 83.1364 532.428 81.0455 534.307 78.2273C536.216 75.4091 537.17 71.8182 537.17 67.4545ZM595.909 97.4545C589.606 97.4545 584.076 95.9545 579.318 92.9545C574.591 89.9545 570.894 85.7576 568.227 80.3636C565.591 74.9697 564.273 68.6667 564.273 61.4545C564.273 54.1818 565.591 47.8333 568.227 42.4091C570.894 36.9848 574.591 32.7727 579.318 29.7727C584.076 26.7727 589.606 25.2727 595.909 25.2727C602.212 25.2727 607.727 26.7727 612.455 29.7727C617.212 32.7727 620.909 36.9848 623.545 42.4091C626.212 47.8333 627.545 54.1818 627.545 61.4545C627.545 68.6667 626.212 74.9697 623.545 80.3636C620.909 85.7576 617.212 89.9545 612.455 92.9545C607.727 95.9545 602.212 97.4545 595.909 97.4545ZM595.909 87.8182C600.697 87.8182 604.636 86.5909 607.727 84.1364C610.818 81.6818 613.106 78.4545 614.591 74.4545C616.076 70.4545 616.818 66.1212 616.818 61.4545C616.818 56.7879 616.076 52.4394 614.591 48.4091C613.106 44.3788 610.818 41.1212 607.727 38.6364C604.636 36.1515 600.697 34.9091 595.909 34.9091C591.121 34.9091 587.182 36.1515 584.091 38.6364C581 41.1212 578.712 44.3788 577.227 48.4091C575.742 52.4394 575 56.7879 575 61.4545C575 66.1212 575.742 70.4545 577.227 74.4545C578.712 78.4545 581 81.6818 584.091 84.1364C587.182 86.5909 591.121 87.8182 595.909 87.8182ZM674.284 26.1818V35.2727H638.102V26.1818H674.284ZM648.648 9.45454H659.375V76C659.375 79.0303 659.814 81.303 660.693 82.8182C661.602 84.303 662.754 85.303 664.148 85.8182C665.572 86.303 667.072 86.5455 668.648 86.5455C669.83 86.5455 670.799 86.4848 671.557 86.3636C672.314 86.2121 672.92 86.0909 673.375 86L675.557 95.6364C674.83 95.9091 673.814 96.1818 672.511 96.4545C671.208 96.7576 669.557 96.9091 667.557 96.9091C664.527 96.9091 661.557 96.2576 658.648 94.9545C655.769 93.6515 653.375 91.6667 651.466 89C649.587 86.3333 648.648 82.9697 648.648 78.9091V9.45454ZM720.784 26.1818V35.2727H684.602V26.1818H720.784ZM695.148 9.45454H705.875V76C705.875 79.0303 706.314 81.303 707.193 82.8182C708.102 84.303 709.254 85.303 710.648 85.8182C712.072 86.303 713.572 86.5455 715.148 86.5455C716.33 86.5455 717.299 86.4848 718.057 86.3636C718.814 86.2121 719.42 86.0909 719.875 86L722.057 95.6364C721.33 95.9091 720.314 96.1818 719.011 96.4545C717.708 96.7576 716.057 96.9091 714.057 96.9091C711.027 96.9091 708.057 96.2576 705.148 94.9545C702.269 93.6515 699.875 91.6667 697.966 89C696.087 86.3333 695.148 82.9697 695.148 78.9091V9.45454ZM765.443 97.4545C758.716 97.4545 752.913 95.9697 748.034 93C743.186 90 739.443 85.8182 736.807 80.4545C734.201 75.0606 732.898 68.7879 732.898 61.6364C732.898 54.4848 734.201 48.1818 736.807 42.7273C739.443 37.2424 743.11 32.9697 747.807 29.9091C752.534 26.8182 758.049 25.2727 764.352 25.2727C767.989 25.2727 771.58 25.8788 775.125 27.0909C778.67 28.303 781.898 30.2727 784.807 33C787.716 35.697 790.034 39.2727 791.761 43.7273C793.489 48.1818 794.352 53.6667 794.352 60.1818V64.7273H740.534V55.4545H783.443C783.443 51.5151 782.655 48 781.08 44.9091C779.534 41.8182 777.322 39.3788 774.443 37.5909C771.595 35.803 768.231 34.9091 764.352 34.9091C760.08 34.9091 756.383 35.9697 753.261 38.0909C750.17 40.1818 747.792 42.9091 746.125 46.2727C744.458 49.6364 743.625 53.2424 743.625 57.0909V63.2727C743.625 68.5455 744.534 73.0152 746.352 76.6818C748.201 80.3182 750.761 83.0909 754.034 85C757.307 86.8788 761.11 87.8182 765.443 87.8182C768.261 87.8182 770.807 87.4242 773.08 86.6364C775.383 85.8182 777.367 84.6061 779.034 83C780.701 81.3636 781.989 79.3333 782.898 76.9091L793.261 79.8182C792.17 83.3333 790.337 86.4242 787.761 89.0909C785.186 91.7273 782.004 93.7879 778.216 95.2727C774.428 96.7273 770.17 97.4545 765.443 97.4545ZM154 251V157.909H185.455C192.758 157.909 198.727 159.227 203.364 161.864C208.03 164.47 211.485 168 213.727 172.455C215.97 176.909 217.091 181.879 217.091 187.364C217.091 192.848 215.97 197.833 213.727 202.318C211.515 206.803 208.091 210.379 203.455 213.045C198.818 215.682 192.879 217 185.636 217H163.091V207H185.273C190.273 207 194.288 206.136 197.318 204.409C200.349 202.682 202.545 200.348 203.909 197.409C205.303 194.439 206 191.091 206 187.364C206 183.636 205.303 180.303 203.909 177.364C202.545 174.424 200.333 172.121 197.273 170.455C194.212 168.758 190.152 167.909 185.091 167.909H165.273V251H154ZM261.409 252.455C255.106 252.455 249.576 250.955 244.818 247.955C240.091 244.955 236.394 240.758 233.727 235.364C231.091 229.97 229.773 223.667 229.773 216.455C229.773 209.182 231.091 202.833 233.727 197.409C236.394 191.985 240.091 187.773 244.818 184.773C249.576 181.773 255.106 180.273 261.409 180.273C267.712 180.273 273.227 181.773 277.955 184.773C282.712 187.773 286.409 191.985 289.045 197.409C291.712 202.833 293.045 209.182 293.045 216.455C293.045 223.667 291.712 229.97 289.045 235.364C286.409 240.758 282.712 244.955 277.955 247.955C273.227 250.955 267.712 252.455 261.409 252.455ZM261.409 242.818C266.197 242.818 270.136 241.591 273.227 239.136C276.318 236.682 278.606 233.455 280.091 229.455C281.576 225.455 282.318 221.121 282.318 216.455C282.318 211.788 281.576 207.439 280.091 203.409C278.606 199.379 276.318 196.121 273.227 193.636C270.136 191.152 266.197 189.909 261.409 189.909C256.621 189.909 252.682 191.152 249.591 193.636C246.5 196.121 244.212 199.379 242.727 203.409C241.242 207.439 240.5 211.788 240.5 216.455C240.5 221.121 241.242 225.455 242.727 229.455C244.212 233.455 246.5 236.682 249.591 239.136C252.682 241.591 256.621 242.818 261.409 242.818ZM309.42 251V181.182H319.784V191.727H320.511C321.784 188.273 324.087 185.47 327.42 183.318C330.754 181.167 334.511 180.091 338.693 180.091C339.481 180.091 340.466 180.106 341.648 180.136C342.83 180.167 343.724 180.212 344.33 180.273V191.182C343.966 191.091 343.133 190.955 341.83 190.773C340.557 190.561 339.208 190.455 337.784 190.455C334.39 190.455 331.36 191.167 328.693 192.591C326.057 193.985 323.966 195.924 322.42 198.409C320.905 200.864 320.148 203.667 320.148 206.818V251H309.42ZM391.784 181.182V190.273H355.602V181.182H391.784ZM366.148 164.455H376.875V231C376.875 234.03 377.314 236.303 378.193 237.818C379.102 239.303 380.254 240.303 381.648 240.818C383.072 241.303 384.572 241.545 386.148 241.545C387.33 241.545 388.299 241.485 389.057 241.364C389.814 241.212 390.42 241.091 390.875 241L393.057 250.636C392.33 250.909 391.314 251.182 390.011 251.455C388.708 251.758 387.057 251.909 385.057 251.909C382.027 251.909 379.057 251.258 376.148 249.955C373.269 248.652 370.875 246.667 368.966 244C367.087 241.333 366.148 237.97 366.148 233.909V164.455ZM439.011 181.182V190.273H401.375V181.182H439.011ZM412.648 251V171.545C412.648 167.545 413.587 164.212 415.466 161.545C417.345 158.879 419.784 156.879 422.784 155.545C425.784 154.212 428.951 153.545 432.284 153.545C434.92 153.545 437.072 153.758 438.739 154.182C440.405 154.606 441.648 155 442.466 155.364L439.375 164.636C438.83 164.455 438.072 164.227 437.102 163.955C436.163 163.682 434.92 163.545 433.375 163.545C429.83 163.545 427.269 164.439 425.693 166.227C424.148 168.015 423.375 170.636 423.375 174.091V251H412.648ZM479.534 252.455C473.231 252.455 467.701 250.955 462.943 247.955C458.216 244.955 454.519 240.758 451.852 235.364C449.216 229.97 447.898 223.667 447.898 216.455C447.898 209.182 449.216 202.833 451.852 197.409C454.519 191.985 458.216 187.773 462.943 184.773C467.701 181.773 473.231 180.273 479.534 180.273C485.837 180.273 491.352 181.773 496.08 184.773C500.837 187.773 504.534 191.985 507.17 197.409C509.837 202.833 511.17 209.182 511.17 216.455C511.17 223.667 509.837 229.97 507.17 235.364C504.534 240.758 500.837 244.955 496.08 247.955C491.352 250.955 485.837 252.455 479.534 252.455ZM479.534 242.818C484.322 242.818 488.261 241.591 491.352 239.136C494.443 236.682 496.731 233.455 498.216 229.455C499.701 225.455 500.443 221.121 500.443 216.455C500.443 211.788 499.701 207.439 498.216 203.409C496.731 199.379 494.443 196.121 491.352 193.636C488.261 191.152 484.322 189.909 479.534 189.909C474.746 189.909 470.807 191.152 467.716 193.636C464.625 196.121 462.337 199.379 460.852 203.409C459.367 207.439 458.625 211.788 458.625 216.455C458.625 221.121 459.367 225.455 460.852 229.455C462.337 233.455 464.625 236.682 467.716 239.136C470.807 241.591 474.746 242.818 479.534 242.818ZM538.273 157.909V251H527.545V157.909H538.273ZM557.92 251V181.182H568.648V251H557.92ZM563.375 169.545C561.284 169.545 559.481 168.833 557.966 167.409C556.481 165.985 555.739 164.273 555.739 162.273C555.739 160.273 556.481 158.561 557.966 157.136C559.481 155.712 561.284 155 563.375 155C565.466 155 567.254 155.712 568.739 157.136C570.254 158.561 571.011 160.273 571.011 162.273C571.011 164.273 570.254 165.985 568.739 167.409C567.254 168.833 565.466 169.545 563.375 169.545ZM616.659 252.455C610.356 252.455 604.826 250.955 600.068 247.955C595.341 244.955 591.644 240.758 588.977 235.364C586.341 229.97 585.023 223.667 585.023 216.455C585.023 209.182 586.341 202.833 588.977 197.409C591.644 191.985 595.341 187.773 600.068 184.773C604.826 181.773 610.356 180.273 616.659 180.273C622.962 180.273 628.477 181.773 633.205 184.773C637.962 187.773 641.659 191.985 644.295 197.409C646.962 202.833 648.295 209.182 648.295 216.455C648.295 223.667 646.962 229.97 644.295 235.364C641.659 240.758 637.962 244.955 633.205 247.955C628.477 250.955 622.962 252.455 616.659 252.455ZM616.659 242.818C621.447 242.818 625.386 241.591 628.477 239.136C631.568 236.682 633.856 233.455 635.341 229.455C636.826 225.455 637.568 221.121 637.568 216.455C637.568 211.788 636.826 207.439 635.341 203.409C633.856 199.379 631.568 196.121 628.477 193.636C625.386 191.152 621.447 189.909 616.659 189.909C611.871 189.909 607.932 191.152 604.841 193.636C601.75 196.121 599.462 199.379 597.977 203.409C596.492 207.439 595.75 211.788 595.75 216.455C595.75 221.121 596.492 225.455 597.977 229.455C599.462 233.455 601.75 236.682 604.841 239.136C607.932 241.591 611.871 242.818 616.659 242.818Z" fill="url(#paint0_radial_4_2)"/>
</g>
<defs>
<filter id="filter0_i_4_2" x="0" y="0" width="794.352" height="252.455" filterUnits="userSpaceOnUse" color-interpolation-filters="sRGB">
<feFlood flood-opacity="0" result="BackgroundImageFix"/>
<feBlend mode="normal" in="SourceGraphic" in2="BackgroundImageFix" result="shape"/>
<feColorMatrix in="SourceAlpha" type="matrix" values="0 0 0 0 0 0 0 0 0 0 0 0 0 0 0 0 0 0 127 0" result="hardAlpha"/>
<feOffset dy="4"/>
<feComposite in2="hardAlpha" operator="arithmetic" k2="-1" k3="1"/>
<feColorMatrix type="matrix" values="0 0 0 0 0 0 0 0 0 0 0 0 0 0 0 0 0 0 0.25 0"/>
<feBlend mode="normal" in2="shape" result="effect1_innerShadow_4_2"/>
</filter>
<radialGradient id="paint0_radial_4_2" cx="0" cy="0" r="1" gradientUnits="userSpaceOnUse" gradientTransform="translate(-75.7102 120) scale(1019.5 276.855)">
<stop stop-color="#2C3631"/>
<stop offset="1" stop-color="#2C3631"/>
</radialGradient>
</defs>
</svg>
