<svg width="420" height="121" viewBox="0 0 420 121" fill="none" xmlns="http://www.w3.org/2000/svg">
<g filter="url(#filter0_i_4_2)">
<path d="M11.2727 0V93.0909H-7.62939e-06V0H11.2727ZM32.4204 93.0909V23.2727H42.7841V34.1818H43.6932C45.1477 30.4545 47.4962 27.5606 50.7386 25.5C53.9811 23.4091 57.875 22.3636 62.4204 22.3636C67.0265 22.3636 70.8598 23.4091 73.9204 25.5C77.0114 27.5606 79.4204 30.4545 81.1477 34.1818H81.875C83.6629 30.5758 86.3447 27.7121 89.9204 25.5909C93.4962 23.4394 97.7841 22.3636 102.784 22.3636C109.027 22.3636 114.133 24.3182 118.102 28.2273C122.072 32.1061 124.057 38.1515 124.057 46.3636V93.0909H113.33V46.3636C113.33 41.2121 111.92 37.5303 109.102 35.3182C106.284 33.1061 102.966 32 99.1477 32C94.2386 32 90.4356 33.4848 87.7386 36.4545C85.0417 39.3939 83.6932 43.1212 83.6932 47.6364V93.0909H72.7841V45.2727C72.7841 41.303 71.4962 38.1061 68.9204 35.6818C66.3447 33.2273 63.0265 32 58.9659 32C56.178 32 53.572 32.7424 51.1477 34.2273C48.7538 35.7121 46.8144 37.7727 45.3295 40.4091C43.875 43.0152 43.1477 46.0303 43.1477 49.4545V93.0909H32.4204ZM164.216 94.7273C159.792 94.7273 155.777 93.8939 152.17 92.2273C148.564 90.5303 145.701 88.0909 143.58 84.9091C141.458 81.697 140.398 77.8182 140.398 73.2727C140.398 69.2727 141.186 66.0303 142.761 63.5455C144.337 61.0303 146.443 59.0606 149.08 57.6364C151.716 56.2121 154.625 55.1515 157.807 54.4545C161.019 53.7273 164.246 53.1515 167.489 52.7273C171.731 52.1818 175.17 51.7727 177.807 51.5C180.473 51.197 182.413 50.697 183.625 50C184.867 49.303 185.489 48.0909 185.489 46.3636V46C185.489 41.5152 184.261 38.0303 181.807 35.5455C179.383 33.0606 175.701 31.8182 170.761 31.8182C165.64 31.8182 161.625 32.9394 158.716 35.1818C155.807 37.4242 153.761 39.8182 152.58 42.3636L142.398 38.7273C144.216 34.4848 146.64 31.1818 149.67 28.8182C152.731 26.4242 156.064 24.7576 159.67 23.8182C163.307 22.8485 166.883 22.3636 170.398 22.3636C172.64 22.3636 175.216 22.6364 178.125 23.1818C181.064 23.697 183.898 24.7727 186.625 26.4091C189.383 28.0455 191.67 30.5152 193.489 33.8182C195.307 37.1212 196.216 41.5455 196.216 47.0909V93.0909H185.489V83.6364H184.943C184.216 85.1515 183.004 86.7727 181.307 88.5C179.61 90.2273 177.352 91.697 174.534 92.9091C171.716 94.1212 168.277 94.7273 164.216 94.7273ZM165.852 85.0909C170.095 85.0909 173.67 84.2576 176.58 82.5909C179.519 80.9242 181.731 78.7727 183.216 76.1364C184.731 73.5 185.489 70.7273 185.489 67.8182V58C185.034 58.5455 184.034 59.0455 182.489 59.5C180.973 59.9242 179.216 60.303 177.216 60.6364C175.246 60.9394 173.322 61.2121 171.443 61.4545C169.595 61.6667 168.095 61.8485 166.943 62C164.155 62.3636 161.549 62.9545 159.125 63.7727C156.731 64.5606 154.792 65.7576 153.307 67.3636C151.852 68.9394 151.125 71.0909 151.125 73.8182C151.125 77.5455 152.504 80.3636 155.261 82.2727C158.049 84.1515 161.58 85.0909 165.852 85.0909ZM243.977 120.727C238.795 120.727 234.341 120.061 230.614 118.727C226.886 117.424 223.78 115.697 221.295 113.545C218.841 111.424 216.886 109.152 215.432 106.727L223.977 100.727C224.947 102 226.174 103.455 227.659 105.091C229.144 106.758 231.174 108.197 233.75 109.409C236.356 110.652 239.765 111.273 243.977 111.273C249.614 111.273 254.265 109.909 257.932 107.182C261.598 104.455 263.432 100.182 263.432 94.3636V80.1818H262.523C261.735 81.4545 260.614 83.0303 259.159 84.9091C257.735 86.7576 255.674 88.4091 252.977 89.8636C250.311 91.2879 246.705 92 242.159 92C236.523 92 231.462 90.6667 226.977 88C222.523 85.3333 218.992 81.4545 216.386 76.3636C213.811 71.2727 212.523 65.0909 212.523 57.8182C212.523 50.6667 213.78 44.4394 216.295 39.1364C218.811 33.803 222.311 29.6818 226.795 26.7727C231.28 23.8333 236.462 22.3636 242.341 22.3636C246.886 22.3636 250.492 23.1212 253.159 24.6364C255.856 26.1212 257.917 27.8182 259.341 29.7273C260.795 31.6061 261.917 33.1515 262.705 34.3636H263.795V23.2727H274.159V95.0909C274.159 101.091 272.795 105.97 270.068 109.727C267.371 113.515 263.735 116.288 259.159 118.045C254.614 119.833 249.553 120.727 243.977 120.727ZM243.614 82.3636C247.917 82.3636 251.553 81.3788 254.523 79.4091C257.492 77.4394 259.75 74.6061 261.295 70.9091C262.841 67.2121 263.614 62.7879 263.614 57.6364C263.614 52.6061 262.856 48.1667 261.341 44.3182C259.826 40.4697 257.583 37.4545 254.614 35.2727C251.644 33.0909 247.977 32 243.614 32C239.068 32 235.28 33.1515 232.25 35.4545C229.25 37.7576 226.992 40.8485 225.477 44.7273C223.992 48.6061 223.25 52.9091 223.25 57.6364C223.25 62.4848 224.008 66.7727 225.523 70.5C227.068 74.197 229.341 77.1061 232.341 79.2273C235.371 81.3182 239.129 82.3636 243.614 82.3636ZM323.068 94.5455C316.341 94.5455 310.538 93.0606 305.659 90.0909C300.811 87.0909 297.068 82.9091 294.432 77.5455C291.826 72.1515 290.523 65.8788 290.523 58.7273C290.523 51.5758 291.826 45.2727 294.432 39.8182C297.068 34.3333 300.735 30.0606 305.432 27C310.159 23.9091 315.674 22.3636 321.977 22.3636C325.614 22.3636 329.205 22.9697 332.75 24.1818C336.295 25.3939 339.523 27.3636 342.432 30.0909C345.341 32.7879 347.659 36.3636 349.386 40.8182C351.114 45.2727 351.977 50.7576 351.977 57.2727V61.8182H298.159V52.5455H341.068C341.068 48.6061 340.28 45.0909 338.705 42C337.159 38.9091 334.947 36.4697 332.068 34.6818C329.22 32.8939 325.856 32 321.977 32C317.705 32 314.008 33.0606 310.886 35.1818C307.795 37.2727 305.417 40 303.75 43.3636C302.083 46.7273 301.25 50.3333 301.25 54.1818V60.3636C301.25 65.6364 302.159 70.1061 303.977 73.7727C305.826 77.4091 308.386 80.1818 311.659 82.0909C314.932 83.9697 318.735 84.9091 323.068 84.9091C325.886 84.9091 328.432 84.5152 330.705 83.7273C333.008 82.9091 334.992 81.697 336.659 80.0909C338.326 78.4545 339.614 76.4242 340.523 74L350.886 76.9091C349.795 80.4242 347.962 83.5152 345.386 86.1818C342.811 88.8182 339.629 90.8788 335.841 92.3636C332.053 93.8182 327.795 94.5455 323.068 94.5455ZM417.75 38.9091L408.114 41.6364C407.508 40.0303 406.614 38.4697 405.432 36.9545C404.28 35.4091 402.705 34.1364 400.705 33.1364C398.705 32.1364 396.144 31.6364 393.023 31.6364C388.75 31.6364 385.189 32.6212 382.341 34.5909C379.523 36.5303 378.114 39 378.114 42C378.114 44.6667 379.083 46.7727 381.023 48.3182C382.962 49.8636 385.992 51.1515 390.114 52.1818L400.477 54.7273C406.72 56.2424 411.371 58.5606 414.432 61.6818C417.492 64.7727 419.023 68.7576 419.023 73.6364C419.023 77.6364 417.871 81.2121 415.568 84.3636C413.295 87.5152 410.114 90 406.023 91.8182C401.932 93.6364 397.174 94.5455 391.75 94.5455C384.629 94.5455 378.735 93 374.068 89.9091C369.402 86.8182 366.447 82.303 365.205 76.3636L375.386 73.8182C376.356 77.5758 378.189 80.3939 380.886 82.2727C383.614 84.1515 387.174 85.0909 391.568 85.0909C396.568 85.0909 400.538 84.0303 403.477 81.9091C406.447 79.7576 407.932 77.1818 407.932 74.1818C407.932 71.7576 407.083 69.7273 405.386 68.0909C403.689 66.4242 401.083 65.1818 397.568 64.3636L385.932 61.6364C379.538 60.1212 374.841 57.7727 371.841 54.5909C368.871 51.3788 367.386 47.3636 367.386 42.5455C367.386 38.6061 368.492 35.1212 370.705 32.0909C372.947 29.0606 375.992 26.6818 379.841 24.9545C383.72 23.2273 388.114 22.3636 393.023 22.3636C399.932 22.3636 405.356 23.8788 409.295 26.9091C413.265 29.9394 416.083 33.9394 417.75 38.9091Z" fill="url(#paint0_radial_4_2)"/>
</g>
<defs>
<filter id="filter0_i_4_2" x="0" y="0" width="419.023" height="120.727" filterUnits="userSpaceOnUse" color-interpolation-filters="sRGB">
<feFlood flood-opacity="0" result="BackgroundImageFix"/>
<feBlend mode="normal" in="SourceGraphic" in2="BackgroundImageFix" result="shape"/>
<feColorMatrix in="SourceAlpha" type="matrix" values="0 0 0 0 0 0 0 0 0 0 0 0 0 0 0 0 0 0 127 0" result="hardAlpha"/>
<feOffset dy="4"/>
<feComposite in2="hardAlpha" operator="arithmetic" k2="-1" k3="1"/>
<feColorMatrix type="matrix" values="0 0 0 0 0 0 0 0 0 0 0 0 0 0 0 0 0 0 0.25 0"/>
<feBlend mode="normal" in2="shape" result="effect1_innerShadow_4_2"/>
</filter>
<radialGradient id="paint0_radial_4_2" cx="0" cy="0" r="1" gradientUnits="userSpaceOnUse" gradientTransform="translate(-267.46 117.091) scale(1019.5 276.855)">
<stop stop-color="#2C3631"/>
<stop offset="1" stop-color="#2C3631"/>
</radialGradient>
</defs>
</svg>
