<svg width="124" height="124" viewBox="0 0 124 124" fill="none" xmlns="http://www.w3.org/2000/svg">
<g clip-path="url(#clip0_3_456)">
<path d="M62 11.1755C78.554 11.1755 80.5173 11.2375 87.0583 11.5372C103.86 12.3018 111.708 20.274 112.473 36.952C112.773 43.4878 112.83 45.4512 112.83 62.0052C112.83 78.5643 112.768 80.5225 112.473 87.0583C111.703 103.721 103.876 111.708 87.0583 112.473C80.5173 112.773 78.5643 112.835 62 112.835C45.446 112.835 43.4827 112.773 36.9468 112.473C20.1035 111.703 12.2967 103.695 11.532 87.0532C11.2323 80.5173 11.1703 78.5592 11.1703 62C11.1703 45.446 11.2375 43.4878 11.532 36.9468C12.3018 20.274 20.1293 12.2967 36.9468 11.532C43.4878 11.2375 45.446 11.1755 62 11.1755ZM62 0C45.1618 0 43.0538 0.0723333 36.4405 0.372C13.9242 1.40533 1.4105 13.8983 0.377167 36.4353C0.0723333 43.0538 0 45.1618 0 62C0 78.8382 0.0723333 80.9513 0.372 87.5647C1.40533 110.081 13.8983 122.595 36.4353 123.628C43.0538 123.928 45.1618 124 62 124C78.8382 124 80.9513 123.928 87.5647 123.628C110.06 122.595 122.605 110.102 123.623 87.5647C123.928 80.9513 124 78.8382 124 62C124 45.1618 123.928 43.0538 123.628 36.4405C122.615 13.9448 110.107 1.4105 87.5698 0.377167C80.9513 0.0723333 78.8382 0 62 0ZM62 30.163C44.4178 30.163 30.163 44.4178 30.163 62C30.163 79.5822 44.4178 93.8422 62 93.8422C79.5822 93.8422 93.837 79.5873 93.837 62C93.837 44.4178 79.5822 30.163 62 30.163ZM62 82.6667C50.5868 82.6667 41.3333 73.4183 41.3333 62C41.3333 50.5868 50.5868 41.3333 62 41.3333C73.4132 41.3333 82.6667 50.5868 82.6667 62C82.6667 73.4183 73.4132 82.6667 62 82.6667ZM95.0977 21.4675C90.985 21.4675 87.6525 24.8 87.6525 28.9075C87.6525 33.015 90.985 36.3475 95.0977 36.3475C99.2052 36.3475 102.532 33.015 102.532 28.9075C102.532 24.8 99.2052 21.4675 95.0977 21.4675Z" fill="#1E1E1E"/>
</g>
<defs>
<clipPath id="clip0_3_456">
<rect width="124" height="124" fill="white"/>
</clipPath>
</defs>
</svg>
